<svg xmlns="http://www.w3.org/2000/svg" xmlns:xlink="http://www.w3.org/1999/xlink" width="500" zoomAndPan="magnify" viewBox="0 0 375 374.999991" height="500" preserveAspectRatio="xMidYMid meet" version="1.0"><path fill="#031f40" d="M 221.960938 192.75 C 221.960938 211.78125 206.53125 227.195312 187.519531 227.195312 C 168.507812 227.195312 153.054688 211.761719 153.054688 192.75 C 153.054688 173.738281 168.488281 158.304688 187.519531 158.304688 C 206.550781 158.304688 221.960938 173.738281 221.960938 192.75 Z M 271.648438 150.976562 C 272.15625 161.867188 272.25 165.148438 272.25 192.75 C 272.25 220.351562 272.136719 223.613281 271.648438 234.507812 C 271.199219 244.574219 269.511719 250.050781 268.085938 253.707031 C 266.210938 258.523438 263.980469 261.976562 260.363281 265.59375 C 256.742188 269.210938 253.292969 271.445312 248.476562 273.320312 C 244.835938 274.742188 239.363281 276.414062 229.273438 276.882812 C 218.382812 277.367188 215.101562 277.480469 187.5 277.480469 C 159.898438 277.480469 156.636719 277.367188 145.726562 276.882812 C 135.65625 276.414062 130.179688 274.742188 126.523438 273.320312 C 121.707031 271.445312 118.257812 269.210938 114.636719 265.59375 C 111.019531 261.976562 108.789062 258.523438 106.914062 253.707031 C 105.507812 250.070312 103.820312 244.59375 103.351562 234.507812 C 102.863281 223.613281 102.75 220.332031 102.75 192.75 C 102.75 165.167969 102.863281 161.886719 103.351562 150.976562 C 103.820312 140.90625 105.488281 135.429688 106.914062 131.773438 C 108.789062 126.957031 111.019531 123.507812 114.636719 119.886719 C 118.257812 116.269531 121.707031 114.039062 126.523438 112.164062 C 130.164062 110.757812 135.636719 109.070312 145.726562 108.601562 C 156.617188 108.09375 159.898438 108 187.5 108 C 215.101562 108 218.363281 108.113281 229.273438 108.601562 C 239.34375 109.070312 244.820312 110.738281 248.476562 112.164062 C 253.292969 114.039062 256.742188 116.269531 260.363281 119.886719 C 263.980469 123.507812 266.210938 126.957031 268.085938 131.773438 C 269.511719 135.414062 271.179688 140.886719 271.648438 150.976562 Z M 240.601562 192.75 C 240.601562 163.445312 216.84375 139.667969 187.519531 139.667969 C 158.195312 139.667969 134.4375 163.425781 134.4375 192.75 C 134.4375 222.074219 158.195312 245.832031 187.519531 245.832031 C 216.84375 245.832031 240.601562 222.074219 240.601562 192.75 Z M 255.09375 137.570312 C 255.09375 130.726562 249.542969 125.175781 242.679688 125.175781 C 235.820312 125.175781 230.289062 130.726562 230.289062 137.570312 C 230.289062 144.414062 235.835938 149.980469 242.679688 149.980469 C 249.523438 149.980469 255.09375 144.429688 255.09375 137.570312 Z M 375.019531 187.5 C 375.019531 291.054688 291.074219 375 187.519531 375 C 83.960938 375 0 291.054688 0 187.5 C 0 83.945312 83.945312 0 187.5 0 C 291.054688 0 375 83.945312 375 187.5 Z M 290.886719 192.75 C 290.886719 164.679688 290.773438 161.15625 290.269531 150.132812 C 289.761719 139.125 288.019531 131.625 285.46875 125.042969 C 282.824219 118.257812 279.300781 112.480469 273.542969 106.742188 C 267.789062 101.007812 262.03125 97.460938 255.242188 94.820312 C 248.664062 92.269531 241.164062 90.523438 230.15625 90.019531 C 219.132812 89.511719 215.605469 89.398438 187.539062 89.398438 C 159.46875 89.398438 155.945312 89.511719 144.917969 90.019531 C 133.914062 90.523438 126.414062 92.269531 119.832031 94.820312 C 113.042969 97.460938 107.269531 100.988281 101.53125 106.742188 C 95.792969 112.480469 92.25 118.257812 89.605469 125.042969 C 87.054688 131.625 85.292969 139.125 84.804688 150.132812 C 84.300781 161.15625 84.1875 164.679688 84.1875 192.75 C 84.1875 220.820312 84.300781 224.34375 84.804688 235.367188 C 85.3125 246.375 87.054688 253.875 89.605469 260.457031 C 92.25 267.242188 95.773438 273.019531 101.53125 278.757812 C 107.269531 284.492188 113.042969 288.039062 119.832031 290.679688 C 126.414062 293.230469 133.914062 294.976562 144.917969 295.480469 C 155.945312 295.988281 159.46875 296.101562 187.539062 296.101562 C 215.605469 296.101562 219.132812 295.988281 230.15625 295.480469 C 241.164062 294.976562 248.664062 293.230469 255.242188 290.679688 C 262.03125 288.039062 267.804688 284.511719 273.542969 278.757812 C 279.28125 273 282.824219 267.242188 285.46875 260.457031 C 288.019531 253.875 289.761719 246.375 290.269531 235.367188 C 290.773438 224.34375 290.886719 220.820312 290.886719 192.75 Z M 290.886719 192.75 " fill-opacity="1" fill-rule="nonzero"/></svg>