<svg xmlns="http://www.w3.org/2000/svg" xmlns:xlink="http://www.w3.org/1999/xlink" width="500" zoomAndPan="magnify" viewBox="0 0 375 374.999991" height="500" preserveAspectRatio="xMidYMid meet" version="1.0"><path fill="#031f40" d="M 165.488281 155.023438 L 223.070312 185.289062 L 165.488281 215.34375 Z M 375 187.480469 C 375 291.039062 291.054688 374.980469 187.5 374.980469 C 83.945312 374.980469 0 291.054688 0 187.5 C 0 83.945312 83.945312 0 187.5 0 C 291.054688 0 375 83.945312 375 187.5 Z M 294.054688 179.304688 C 294.054688 161.945312 291.917969 144.5625 291.917969 144.5625 C 291.917969 144.5625 289.835938 129.769531 283.445312 123.261719 C 275.34375 114.710938 266.25 114.675781 262.085938 114.167969 C 232.257812 111.992188 187.539062 111.992188 187.539062 111.992188 L 187.445312 111.992188 C 187.445312 111.992188 142.707031 111.992188 112.894531 114.167969 C 108.730469 114.65625 99.65625 114.710938 91.539062 123.261719 C 85.144531 129.769531 83.082031 144.5625 83.082031 144.5625 C 83.082031 144.5625 80.945312 161.925781 80.945312 179.304688 L 80.945312 195.601562 C 80.945312 212.960938 83.082031 230.34375 83.082031 230.34375 C 83.082031 230.34375 85.164062 245.136719 91.539062 251.644531 C 99.65625 260.195312 110.304688 259.929688 115.03125 260.8125 C 132.074219 262.460938 187.480469 262.96875 187.480469 262.96875 C 187.480469 262.96875 232.257812 262.894531 262.085938 260.738281 C 266.25 260.230469 275.324219 260.195312 283.445312 251.644531 C 289.835938 245.136719 291.917969 230.34375 291.917969 230.34375 C 291.917969 230.34375 294.054688 212.980469 294.054688 195.601562 Z M 294.054688 179.304688 " fill-opacity="1" fill-rule="nonzero"/></svg>